<?xml version="1.0" encoding="utf-8"?>
<!-- Generator: Adobe Illustrator 15.0.0, SVG Export Plug-In . SVG Version: 6.00 Build 0)  -->

<svg version="1.1" id="Layer_1" xmlns="http://www.w3.org/2000/svg" xmlns:xlink="http://www.w3.org/1999/xlink" x="0px" y="0px"
	 width="16px" height="16px" viewBox="0 0 16 16" enable-background="new 0 0 16 16" xml:space="preserve">
<g opacity="0.5">
	<path fill="#5C5C5C" d="M7,3.2C7,4.8,5.8,6,4.2,6C2.7,6,1.5,4.8,1.5,3.2s1.2-2.8,2.7-2.8C5.8,0.5,7,1.7,7,3.2z"/>
	<path fill="#5C5C5C" d="M8.9,11.6c0.1,0,0.2,0.2,0.2-0.1c0-2.8-2.2-4.9-4.8-4.9c-2.6,0-4.8,1.9-4.8,4.7c0,0.3,0.2,0.2,0,0.2H8.9z"
		/>
</g>
<g>
	<path fill="#5C5C5C" d="M13.4,3.1c0,1.5-1.3,2.7-2.8,2.7c-1.5,0-2.7-1.2-2.7-2.7s1.2-2.8,2.7-2.8C12.2,0.4,13.4,1.6,13.4,3.1z"/>
	<path fill="#5C5C5C" d="M15.3,11.5c0.1,0,0.2,0.2,0.2-0.1c0-2.8-2.2-4.9-4.8-4.9c-2.6,0-4.8,1.9-4.8,4.7c0,0.3,0.2,0.2,0,0.2H15.3z
		"/>
</g>
<g>
	<g>
		<g>
			<rect y="13" fill="#5C5C5C" width="8" height="1"/>
		</g>
	</g>
	<polygon fill="#FFFFFF" points="14,16.2 7.2,9 14,9 	"/>
	<polygon fill="#5C5C5C" points="13,13.6 9.7,10 13,10 	"/>
	<g>
		<g>
			
				<rect x="9.3" y="10.9" transform="matrix(-0.5055 -0.8628 0.8628 -0.5055 3.7106 27.6921)" fill="#5C5C5C" width="0.9" height="3.8"/>
		</g>
	</g>
</g>
</svg>
