<?xml version="1.0" encoding="utf-8"?>
<!-- Generator: Adobe Illustrator 15.0.0, SVG Export Plug-In . SVG Version: 6.00 Build 0)  -->

<svg version="1.1" id="Layer_1" xmlns="http://www.w3.org/2000/svg" xmlns:xlink="http://www.w3.org/1999/xlink" x="0px" y="0px"
	 width="24px" height="24px" viewBox="0 0 24 24" enable-background="new 0 0 24 24" xml:space="preserve">
<g>
	<path fill="#2980B9" d="M15,1.3v11v0.3c0,0.2,0.4,0.2,0.6,0l5.7-5.4c0.2-0.2,0.2-0.6,0-0.9L15.5,1C15.3,0.8,15,0.8,15,1V1.3z"/>
	<rect x="5" y="4" fill="#2980B9" width="10" height="6"/>
	<path fill="#C0392B" d="M9,12.3v11v0.3c0,0.2-0.5,0.2-0.7,0l-5.7-5.4c-0.2-0.2-0.2-0.6,0-0.9L8.4,12C8.6,11.8,9,11.8,9,12V12.3z"/>
	<rect x="9" y="15" fill="#C0392B" width="10" height="6"/>
</g>
</svg>
