<?xml version="1.0" encoding="utf-8"?>
<!-- Generator: Adobe Illustrator 15.0.0, SVG Export Plug-In . SVG Version: 6.00 Build 0)  -->

<svg version="1.1" id="Layer_1" xmlns="http://www.w3.org/2000/svg" xmlns:xlink="http://www.w3.org/1999/xlink" x="0px" y="0px"
	 width="80px" height="80px" viewBox="0 0 80 80" enable-background="new 0 0 80 80" xml:space="preserve">
<g>
	<rect x="5" y="16" fill="#FFFFFF" width="71" height="58"/>
	<g>
		<g>
			<path fill="#47ABE2" d="M64,10v3.4V14h-1.7h-9.5H51v-0.6V10H30v3.4V14h-1.8h-9.5H17v-0.6V10H3v66h74V10H64z M75,73H6V18h69V73z"
				/>
		</g>
		<rect x="18.8" y="3.6" fill="#47ABE2" width="9.3" height="9.1"/>
		<rect x="52.9" y="3.6" fill="#47ABE2" width="9.3" height="9.1"/>
	</g>
	<g opacity="0.7">
		<g>
			<line fill="none" x1="12" y1="22.9" x2="12" y2="69.5"/>
			<rect x="12" y="22.9" fill="#BDC3C7" width="1" height="46.6"/>
		</g>
		<g>
			<line fill="none" x1="27" y1="22.9" x2="27" y2="69.5"/>
			<rect x="27" y="22.9" fill="#BDC3C7" width="1" height="46.6"/>
		</g>
		<g>
			<line fill="none" x1="55" y1="22.9" x2="55" y2="69.5"/>
			<rect x="55" y="22.9" fill="#BDC3C7" width="1" height="46.6"/>
		</g>
		<g>
			<line fill="none" x1="41" y1="22.9" x2="41" y2="69.5"/>
			<rect x="41" y="22.9" fill="#BDC3C7" width="1" height="46.6"/>
		</g>
		<g>
			<line fill="none" x1="69" y1="22.9" x2="69" y2="69.5"/>
			<rect x="69" y="22.9" fill="#BDC3C7" width="1" height="46.6"/>
		</g>
		<g>
			<line fill="none" x1="12" y1="58.1" x2="69" y2="58.1"/>
			<rect x="12" y="57.1" fill="#BDC3C7" width="57.1" height="1"/>
		</g>
		<g>
			<line fill="none" x1="12" y1="46.7" x2="69" y2="46.7"/>
			<rect x="12" y="45.7" fill="#BDC3C7" width="57.1" height="1"/>
		</g>
		<g>
			<line fill="none" x1="12" y1="23.9" x2="69" y2="23.9"/>
			<rect x="12" y="22.9" fill="#BDC3C7" width="57.1" height="1"/>
		</g>
		<g>
			<line fill="none" x1="12" y1="35.3" x2="69" y2="35.3"/>
			<rect x="12" y="34.3" fill="#BDC3C7" width="57.1" height="1"/>
		</g>
		<g>
			<line fill="none" x1="12" y1="69.5" x2="69" y2="69.5"/>
			<rect x="12" y="68.5" fill="#BDC3C7" width="57.1" height="1"/>
		</g>
	</g>
	<rect x="12" y="22.9" fill="#E67E22" width="58.1" height="12.4"/>
</g>
</svg>
