<?xml version="1.0" encoding="utf-8"?>
<!-- Generator: Adobe Illustrator 15.0.0, SVG Export Plug-In . SVG Version: 6.00 Build 0)  -->

<svg version="1.1" id="Layer_1" xmlns="http://www.w3.org/2000/svg" xmlns:xlink="http://www.w3.org/1999/xlink" x="0px" y="0px"
	 width="20px" height="20px" viewBox="0 0 20 20" enable-background="new 0 0 20 20" xml:space="preserve">
<g>
	<path fill="#FFFFFF" d="M6.6,17.3l-1.9,2l-1.8-1.9L0.5,19V2.4c0-0.7,1.1-0.9,1.8-0.9h12.3c0.8,0,0.9,0.2,0.9,0.9v16.4l-1.4-1.4
		l-1.9,2l-1.9-2l-1.9,2L6.6,17.3z"/>
	<g>
		<path fill="#354B7C" d="M14.6,2c0.2,0,0.3,0,0.4,0c0,0,0,0.2,0,0.4v15.1l-0.2-0.2l-0.7-0.7l-0.7,0.7l-1.2,1.2l-1.2-1.2l-0.7-0.7
			l-0.7,0.7l-1.2,1.2l-1.2-1.2l-0.7-0.7l-0.7,0.7l-1.2,1.2l-1.2-1.2l-0.6-0.6l-0.7,0.5L1,18.1V2.4C1,2.3,1.6,2,2.3,2H14.6 M14.6,1
			H2.3C1.3,1,0,1.4,0,2.4V20l2.8-2l1.9,2l1.9-2l1.9,2l1.9-2l1.9,2l1.9-2l1.9,2V2.4C16,1.4,15.6,1,14.6,1L14.6,1z"/>
	</g>
</g>
<g>
	<path fill-rule="evenodd" clip-rule="evenodd" fill="#2980B9" d="M3,7l9,0v1H3V7z"/>
	<path fill-rule="evenodd" clip-rule="evenodd" fill="#2980B9" d="M3,5.1l5,0v1H3V5.1z"/>
	<path fill-rule="evenodd" clip-rule="evenodd" fill="#2980B9" d="M3,9h9v1H3V9z"/>
	<path fill-rule="evenodd" clip-rule="evenodd" fill="#2980B9" d="M3,11h9v1H3V11z"/>
	<path fill-rule="evenodd" clip-rule="evenodd" fill="#2980B9" d="M3,13h9v1H3V13z"/>
</g>
<g id="Expanded_2_">
	<g>
		<g>
			<path fill="#2C3E50" d="M10.5,14.3L10.5,14.3c-0.1,0-0.1,0-0.2-0.1l-1.5-1.5c-0.1-0.1-0.1-0.3,0-0.4L18,3.1C18.1,3,18.2,3,18.2,3
				l0,0c0.1,0,0.1,0,0.2,0.1l1.5,1.5C20,4.7,20,4.9,19.9,5l-9.2,9.2C10.6,14.3,10.6,14.3,10.5,14.3z"/>
		</g>
		<g>
			<path fill="#2C3E50" d="M13.3,6.9c-0.1,0-0.1,0-0.2-0.1c-0.1-0.1-0.1-0.3,0-0.4l3-3c0.5-0.5,1.4-0.5,1.9,0c0.1,0.1,0.1,0.3,0,0.4
				c-0.1,0.1-0.3,0.1-0.4,0c-0.3-0.3-0.8-0.3-1.1,0l-3,3C13.5,6.9,13.4,6.9,13.3,6.9z"/>
		</g>
		<g>
			<path fill="#2C3E50" d="M7.3,15.7c-0.2-0.2,1.8-2.4,1.8-2.4c0.2-0.2,0.4-0.2,0.6,0c0.2,0.2,0.2,0.4,0,0.6
				C9.7,13.9,7.4,15.8,7.3,15.7z"/>
		</g>
		<g>
			<path fill="#D6D6D6" d="M16.7,8.1c-0.1,0-0.1,0-0.2-0.1L15,6.5c-0.1-0.1-0.1-0.3,0-0.4c0.1-0.1,0.3-0.1,0.4,0l1.5,1.5
				C17,7.7,17,7.9,16.9,8C16.9,8,16.8,8.1,16.7,8.1z"/>
		</g>
		<g>
			<path fill="#2C3E50" d="M9,15c-0.1,0-0.1,0-0.2-0.1L8,14.2C8,14.2,8,14.1,8,14C8,14,8,13.9,8,13.8l1.1-1.1c0.1-0.1,0.3-0.1,0.4,0
				c0.1,0.1,0.1,0.3,0,0.4L8.6,14L9,14.4l0.9-0.9c0.1-0.1,0.3-0.1,0.4,0c0.1,0.1,0.1,0.3,0,0.4L9.2,15C9.1,15,9,15,9,15z"/>
		</g>
	</g>
</g>
</svg>
