<?xml version="1.0" encoding="utf-8"?>
<!-- Generator: Adobe Illustrator 15.0.0, SVG Export Plug-In . SVG Version: 6.00 Build 0)  -->

<svg version="1.1" id="Layer_1" xmlns="http://www.w3.org/2000/svg" xmlns:xlink="http://www.w3.org/1999/xlink" x="0px" y="0px"
	 width="24px" height="24px" viewBox="0 0 24 24" enable-background="new 0 0 24 24" xml:space="preserve">
<g>
	<rect x="5" y="4" fill="#2980B9" width="11" height="3"/>
	<rect x="5" y="9" fill="#2980B9" width="11" height="3"/>
	<rect x="5" y="14" fill="#2980B9" width="11" height="3"/>
</g>
<g>
	<g>
		<rect x="20" y="19" fill="#C0392B" width="1" height="1"/>
	</g>
	<g>
		<rect x="20" y="3" fill="#C0392B" width="1" height="1"/>
	</g>
	<g>
		<rect x="20" y="1" fill="#C0392B" width="1" height="1"/>
	</g>
	<g>
		<rect x="18" y="1" fill="#C0392B" width="1" height="1"/>
	</g>
	<g>
		<rect x="20" y="21" fill="#C0392B" width="1" height="1"/>
	</g>
	<g>
		<rect x="20" y="23" fill="#C0392B" width="1" height="1"/>
	</g>
	<g>
		<rect x="2" y="23" fill="#C0392B" width="1" height="1"/>
	</g>
	<g>
		<rect x="2" y="21" fill="#C0392B" width="1" height="1"/>
	</g>
	<g>
		<rect x="2" y="19" fill="#C0392B" width="1" height="1"/>
	</g>
	<g>
		<rect x="6" y="23" fill="#C0392B" width="1" height="1"/>
	</g>
	<g>
		<rect x="4" y="23" fill="#C0392B" width="1" height="1"/>
	</g>
	<g>
		<path fill="#C0392B" d="M19,24h-1v-1h1V24z M17,24h-1v-1h1V24z M15,24h-1v-1h1V24z M13,24h-1v-1h1V24z M11,24h-1v-1h1V24z M9,24H8
			v-1h1V24z"/>
	</g>
	<g>
		<rect x="2" y="17" fill="#C0392B" width="1" height="1"/>
	</g>
	<g>
		<path fill="#C0392B" d="M3,16H2v-1h1V16z M3,14H2v-1h1V14z M3,12H2v-1h1V12z M3,10H2V9h1V10z M3,8H2V7h1V8z M3,6H2V5h1V6z M3,4H2
			V3h1V4z"/>
	</g>
	<g>
		<rect x="2" y="1" fill="#C0392B" width="1" height="1"/>
	</g>
	<g>
		<path fill="#C0392B" d="M15,2h-1V1h1V2z M13,2h-1V1h1V2z M11,2h-1V1h1V2z M9,2H8V1h1V2z M7,2H6V1h1V2z M5,2H4V1h1V2z"/>
	</g>
	<g>
		<rect x="16" y="1" fill="#C0392B" width="1" height="1"/>
	</g>
	<g>
		<path fill="#C0392B" d="M21,18h-1v-1h1V18z M21,16h-1v-1h1V16z M21,14h-1v-1h1V14z M21,12h-1v-1h1V12z M21,10h-1V9h1V10z M21,8h-1
			V7h1V8z M21,6h-1V5h1V6z"/>
	</g>
</g>
<g>
	<g>
		<g>
			<circle fill="#C0392B" cx="14.5" cy="17" r="4.5"/>
		</g>
	</g>
	<rect x="12" y="16" fill="#FFFFFF" width="5" height="2"/>
</g>
</svg>
